<?xml version="1.0" encoding="UTF-8" standalone="no"?>
<svg
   xmlns:dc="http://purl.org/dc/elements/1.1/"
   xmlns:cc="http://creativecommons.org/ns#"
   xmlns:rdf="http://www.w3.org/1999/02/22-rdf-syntax-ns#"
   xmlns:svg="http://www.w3.org/2000/svg"
   xmlns="http://www.w3.org/2000/svg"
   xmlns:sodipodi="http://sodipodi.sourceforge.net/DTD/sodipodi-0.dtd"
   xmlns:inkscape="http://www.inkscape.org/namespaces/inkscape"
   width="12.481904mm"
   height="12.481924mm"
   version="1.1"
   viewBox="0 0 12.481903 12.481924"
   id="svg2589"
   sodipodi:docname="email.svg"
   inkscape:version="1.0.2-2 (e86c870879, 2021-01-15)">
  <defs
     id="defs2593" />
  <sodipodi:namedview
     pagecolor="#ffffff"
     bordercolor="#666666"
     borderopacity="1"
     objecttolerance="10"
     gridtolerance="10"
     guidetolerance="10"
     inkscape:pageopacity="0"
     inkscape:pageshadow="2"
     inkscape:window-width="1920"
     inkscape:window-height="1027"
     id="namedview2591"
     showgrid="false"
     inkscape:zoom="8"
     inkscape:cx="11.025522"
     inkscape:cy="19.650799"
     inkscape:window-x="-8"
     inkscape:window-y="22"
     inkscape:window-maximized="1"
     inkscape:current-layer="svg2589"
     inkscape:document-rotation="0"
     inkscape:snap-bbox="true"
     inkscape:snap-global="false" />
  <metadata
     id="metadata2583">
    <rdf:RDF>
      <cc:Work
         rdf:about="">
        <dc:format>image/svg+xml</dc:format>
        <dc:type
           rdf:resource="http://purl.org/dc/dcmitype/StillImage" />
        <dc:title></dc:title>
      </cc:Work>
    </rdf:RDF>
  </metadata>
  <path
     id="path2585"
     style="fill:#5e6572;fill-opacity:1;stroke-width:3.77953"
     d="M 23.587891 0 C 10.559887 0 2.3684758e-15 10.559895 0 23.587891 C 0 36.614562 10.559887 47.175781 23.587891 47.175781 C 36.61319 47.175781 47.175781 36.614562 47.175781 23.587891 C 47.175781 10.559895 36.61319 7.1054274e-15 23.587891 0 z M 7.703125 12.580078 L 39.474609 12.580078 L 39.474609 34.597656 L 7.703125 34.597656 L 7.703125 13.710938 L 7.703125 12.580078 z M 11.478516 14.833984 L 19.199219 22.804688 L 19.207031 22.804688 L 23.587891 27.322266 L 27.966797 22.804688 L 27.96875 22.804688 L 35.691406 14.833984 L 11.478516 14.833984 z M 9.9492188 16.488281 L 9.9492188 30.6875 L 16.830078 23.587891 L 9.9492188 16.488281 z M 37.220703 16.488281 L 30.341797 23.583984 L 37.220703 30.681641 L 37.220703 16.488281 z M 18.398438 25.207031 L 11.484375 32.341797 L 35.691406 32.341797 L 28.777344 25.207031 L 24.396484 29.726562 L 24.388672 29.726562 L 23.583984 30.556641 L 22.779297 29.726562 L 18.398438 25.207031 z "
     transform="scale(0.26458332)" />
</svg>
