<?xml version="1.0" encoding="UTF-8" standalone="no"?>
<svg
   xmlns:dc="http://purl.org/dc/elements/1.1/"
   xmlns:cc="http://creativecommons.org/ns#"
   xmlns:rdf="http://www.w3.org/1999/02/22-rdf-syntax-ns#"
   xmlns:svg="http://www.w3.org/2000/svg"
   xmlns="http://www.w3.org/2000/svg"
   xmlns:sodipodi="http://sodipodi.sourceforge.net/DTD/sodipodi-0.dtd"
   xmlns:inkscape="http://www.inkscape.org/namespaces/inkscape"
   width="12.48193mm"
   height="12.481925mm"
   version="1.1"
   viewBox="0 0 12.481929 12.481925"
   id="svg3174"
   sodipodi:docname="instagram.svg"
   inkscape:version="1.0.2-2 (e86c870879, 2021-01-15)">
  <defs
     id="defs3178" />
  <sodipodi:namedview
     pagecolor="#ffffff"
     bordercolor="#666666"
     borderopacity="1"
     objecttolerance="10"
     gridtolerance="10"
     guidetolerance="10"
     inkscape:pageopacity="0"
     inkscape:pageshadow="2"
     inkscape:window-width="1920"
     inkscape:window-height="1027"
     id="namedview3176"
     showgrid="false"
     inkscape:zoom="15.580029"
     inkscape:cx="23.587899"
     inkscape:cy="23.58789"
     inkscape:window-x="-8"
     inkscape:window-y="22"
     inkscape:window-maximized="1"
     inkscape:current-layer="svg3174" />
  <metadata
     id="metadata3168">
    <rdf:RDF>
      <cc:Work
         rdf:about="">
        <dc:format>image/svg+xml</dc:format>
        <dc:type
           rdf:resource="http://purl.org/dc/dcmitype/StillImage" />
        <dc:title />
      </cc:Work>
    </rdf:RDF>
  </metadata>
  <g
     transform="translate(25.229816,-58.861081)"
     id="g3172"
     style="fill:#5e6572;fill-opacity:1">
    <path
       d="m -18.988851,58.861081 c -3.446992,0 -6.240965,2.793972 -6.240965,6.240962 0,3.44664 2.793973,6.240963 6.240965,6.240963 3.446303,0 6.240965,-2.794323 6.240965,-6.240963 0,-3.44699 -2.794662,-6.240962 -6.240965,-6.240962 z m -1.460871,2.573486 h 2.921767 c 1.211792,0 2.197815,0.986008 2.197815,2.197799 v 2.921785 c 0,1.21179 -0.986023,2.197799 -2.197815,2.197798 h -2.921767 c -1.211791,0 -2.197814,-0.986008 -2.197814,-2.197798 v -2.921785 c 0,-1.211791 0.986023,-2.197799 2.197814,-2.197799 z m 0,0.68833 c -0.83222,0 -1.509474,0.676909 -1.509474,1.509469 v 2.921785 c 0,0.8322 0.677254,1.509469 1.509474,1.509469 h 2.921767 c 0.832565,0 1.509475,-0.677269 1.509475,-1.509469 v -2.921785 c 0,-0.83256 -0.67691,-1.509469 -1.509475,-1.509469 z m 3.398229,0.61805 c 0.237067,0 0.428916,0.192194 0.428916,0.428914 0,0.237071 -0.191849,0.428915 -0.428916,0.428915 -0.237067,0 -0.428916,-0.191844 -0.428916,-0.428915 0,-0.23672 0.191849,-0.428914 0.428916,-0.428914 z m -1.907381,0.550354 c 0.993431,0 1.801971,0.808187 1.801971,1.801957 0,0.99378 -0.80854,1.801957 -1.801971,1.801957 -0.993775,0 -1.801945,-0.808177 -1.801945,-1.801957 0,-0.99377 0.80817,-1.801957 1.801945,-1.801957 z m 0,0.647506 c -0.636773,0 -1.154457,0.518041 -1.154457,1.154451 0,0.63641 0.517684,1.154452 1.154457,1.154452 0.636402,0 1.153927,-0.518042 1.153927,-1.154452 0,-0.63641 -0.517525,-1.154451 -1.153927,-1.154451 z"
       fill="#040606"
       id="path3170"
       style="fill:#5e6572;fill-opacity:1" />
  </g>
</svg>
