<?xml version="1.0" encoding="UTF-8" standalone="no"?>
<svg
   xmlns:dc="http://purl.org/dc/elements/1.1/"
   xmlns:cc="http://creativecommons.org/ns#"
   xmlns:rdf="http://www.w3.org/1999/02/22-rdf-syntax-ns#"
   xmlns:svg="http://www.w3.org/2000/svg"
   xmlns="http://www.w3.org/2000/svg"
   xmlns:sodipodi="http://sodipodi.sourceforge.net/DTD/sodipodi-0.dtd"
   xmlns:inkscape="http://www.inkscape.org/namespaces/inkscape"
   width="12.481904mm"
   height="12.481924mm"
   version="1.1"
   viewBox="0 0 12.481903 12.481924"
   id="svg2589"
   sodipodi:docname="twitter.svg"
   inkscape:version="1.0.2-2 (e86c870879, 2021-01-15)">
  <defs
     id="defs2593" />
  <sodipodi:namedview
     pagecolor="#ffffff"
     bordercolor="#666666"
     borderopacity="1"
     objecttolerance="10"
     gridtolerance="10"
     guidetolerance="10"
     inkscape:pageopacity="0"
     inkscape:pageshadow="2"
     inkscape:window-width="1920"
     inkscape:window-height="1027"
     id="namedview2591"
     showgrid="false"
     inkscape:zoom="7.790015"
     inkscape:cx="-19.18573"
     inkscape:cy="25.368621"
     inkscape:window-x="-8"
     inkscape:window-y="22"
     inkscape:window-maximized="1"
     inkscape:current-layer="svg2589" />
  <metadata
     id="metadata2583">
    <rdf:RDF>
      <cc:Work
         rdf:about="">
        <dc:format>image/svg+xml</dc:format>
        <dc:type
           rdf:resource="http://purl.org/dc/dcmitype/StillImage" />
        <dc:title />
      </cc:Work>
    </rdf:RDF>
  </metadata>
  <g
     transform="translate(41.68047,-75.311756)"
     id="g2587"
     style="fill:#5e6572;fill-opacity:1">
    <path
       d="m -35.439505,75.311756 c -3.446992,0 -6.240965,2.793972 -6.240965,6.240962 0,3.44664 2.793973,6.240962 6.240965,6.240962 3.446277,0 6.240939,-2.794322 6.240939,-6.240962 0,-3.44699 -2.794662,-6.240962 -6.240939,-6.240962 z m 1.498097,3.432349 c 0.154623,0.0072 0.307975,0.0402 0.451644,0.0987 0.145706,0.05961 0.275378,0.139713 0.395314,0.242363 0.02593,0.0208 0.04802,0.04606 0.07133,0.07286 0.01508,0.0148 0.03283,0.02099 0.05683,0.01499 0.286464,-0.07161 0.555625,-0.172776 0.815975,-0.312126 0.01164,-0.006 0.02143,-0.0091 0.0367,-0.0031 0.01111,0.0092 0.0069,0.02417 0,0.03617 -0.04657,0.15205 -0.128905,0.292692 -0.228415,0.416512 -0.06493,0.08114 -0.2277,0.281423 -0.338482,0.299723 0.232834,-0.03916 0.47207,-0.09815 0.68834,-0.195853 0.02754,-0.0123 0.02789,-0.018 0.02789,0 v 0.0057 c 0,0.01761 -5.3e-5,0.06052 -0.03564,0.10852 -0.15875,0.21413 -0.331073,0.405697 -0.544168,0.565858 -0.03109,0.02331 -0.08319,0.04767 -0.08319,0.09147 0,1.12395 -0.286729,2.246582 -1.105879,3.060795 -1.043517,1.036458 -2.608977,1.318646 -3.998225,0.934823 -0.26916,-0.07443 -0.526653,-0.17866 -0.773589,-0.309541 -0.08184,-0.04478 -0.161581,-0.09095 -0.240294,-0.143145 -0.02011,-0.0158 -0.03538,-0.03074 -0.01799,-0.04134 0.01693,-0.008 0.02987,-0.009 0.09197,0 0.388409,0.03845 0.789094,-0.01939 1.15705,-0.147794 0.202141,-0.07056 0.636296,-0.21291 0.761179,-0.404111 0.0029,-0.004 0.0058,-0.0038 0.0087,-0.0088 -0.0508,-0.0118 -0.101309,-0.01167 -0.151395,-0.02066 -0.377481,-0.107598 -0.881644,-0.297021 -1.115192,-0.933794 -0.01482,-0.037 -2.65e-4,-0.05609 0.03823,-0.04909 0.310806,0.02471 0.422593,0.0071 0.531257,-0.01654 -0.06104,-0.01021 -0.123455,-0.03078 -0.179837,-0.05478 -0.475562,-0.180969 -0.823172,-0.644882 -0.886249,-1.146183 -0.0069,-0.05821 -0.01217,-0.107114 -0.0093,-0.160713 0.0032,-0.0372 0.01958,-0.04922 0.0527,-0.02842 0.244131,0.126298 0.518848,0.156927 0.541046,0.151926 -0.06067,-0.04763 -0.117078,-0.09973 -0.172085,-0.151926 -0.412379,-0.390523 -0.573061,-1.185051 -0.242861,-1.680001 0.0268,-0.0404 0.04472,-0.0405 0.0775,-0.0031 0.753904,0.85972 1.683358,1.260443 2.804504,1.427302 0.02918,0.0046 0.03289,-2.64e-4 0.02789,-0.03307 -0.02929,-0.1972 -0.03313,-0.39057 0.01455,-0.586011 0.04974,-0.2025 0.146632,-0.392918 0.277495,-0.554488 0.127,-0.15663 0.285565,-0.286205 0.464079,-0.379305 0.177774,-0.09277 0.374756,-0.149264 0.575151,-0.162264 0.05149,-0.0033 0.102976,-0.004 0.154517,-0.0016 z"
       fill="#040606"
       id="path2585"
       style="fill:#5e6572;fill-opacity:1" />
  </g>
</svg>
