<?xml version="1.0" encoding="UTF-8" standalone="no"?>
<svg
   xmlns:dc="http://purl.org/dc/elements/1.1/"
   xmlns:cc="http://creativecommons.org/ns#"
   xmlns:rdf="http://www.w3.org/1999/02/22-rdf-syntax-ns#"
   xmlns:svg="http://www.w3.org/2000/svg"
   xmlns="http://www.w3.org/2000/svg"
   xmlns:sodipodi="http://sodipodi.sourceforge.net/DTD/sodipodi-0.dtd"
   xmlns:inkscape="http://www.inkscape.org/namespaces/inkscape"
   width="12.48193mm"
   height="12.481924mm"
   viewBox="0 0 12.481929 12.481924"
   version="1.1"
   id="svg1082"
   inkscape:version="1.0.2-2 (e86c870879, 2021-01-15)"
   sodipodi:docname="youtube.svg">
  <defs
     id="defs1076" />
  <sodipodi:namedview
     id="base"
     pagecolor="#ffffff"
     bordercolor="#666666"
     borderopacity="1.0"
     inkscape:pageopacity="0.0"
     inkscape:pageshadow="2"
     inkscape:zoom="2.8"
     inkscape:cx="-12.295071"
     inkscape:cy="5.4593066"
     inkscape:document-units="mm"
     inkscape:current-layer="layer1"
     inkscape:document-rotation="0"
     showgrid="false"
     inkscape:window-width="1920"
     inkscape:window-height="1027"
     inkscape:window-x="-8"
     inkscape:window-y="22"
     inkscape:window-maximized="1" />
  <metadata
     id="metadata1079">
    <rdf:RDF>
      <cc:Work
         rdf:about="">
        <dc:format>image/svg+xml</dc:format>
        <dc:type
           rdf:resource="http://purl.org/dc/dcmitype/StillImage" />
        <dc:title></dc:title>
      </cc:Work>
    </rdf:RDF>
  </metadata>
  <g
     inkscape:label="Layer 1"
     inkscape:groupmode="layer"
     id="layer1"
     transform="translate(25.229816,-75.311756)">
    <path
       id="path1008"
       style="fill:#5e6572;fill-opacity:1;fill-rule:nonzero;stroke:none;stroke-width:0.0352777"
       d="m -18.988851,75.311756 c -3.446992,0 -6.240965,2.793971 -6.240965,6.240962 0,3.446629 2.793973,6.240962 6.240965,6.240962 3.446303,0 6.240965,-2.794333 6.240965,-6.240962 0,-3.446991 -2.794662,-6.240962 -6.240965,-6.240962 z m -1.989535,3.850411 h 3.832331 c 0.827617,0 1.4986,0.671387 1.4986,1.498617 v 1.783352 c 0,0.827934 -0.670983,1.498619 -1.4986,1.498619 h -3.832331 c -0.827616,0 -1.498626,-0.670685 -1.498626,-1.498619 v -1.783352 c 0,-0.82723 0.67101,-1.498617 1.498626,-1.498617 z m 1.285717,1.439189 c -0.09332,0.0011 -0.223256,0.0431 -0.223256,0.101285 v 1.745112 c 0,0.07663 0.228918,0.125114 0.296624,0.08888 l 1.718258,-0.850077 c 0.06951,-0.03806 -0.0032,-0.137472 -0.07184,-0.176734 l -1.644861,-0.895035 c -0.01693,-0.0096 -0.04384,-0.01381 -0.07493,-0.01344 z" />
  </g>
</svg>
