<?xml version="1.0" encoding="UTF-8" standalone="no"?>
<svg
   xmlns:dc="http://purl.org/dc/elements/1.1/"
   xmlns:cc="http://creativecommons.org/ns#"
   xmlns:rdf="http://www.w3.org/1999/02/22-rdf-syntax-ns#"
   xmlns:svg="http://www.w3.org/2000/svg"
   xmlns="http://www.w3.org/2000/svg"
   xmlns:sodipodi="http://sodipodi.sourceforge.net/DTD/sodipodi-0.dtd"
   xmlns:inkscape="http://www.inkscape.org/namespaces/inkscape"
   width="17.00001mm"
   height="17.000038mm"
   viewBox="0 0 17.00001 17.000039"
   version="1.1"
   id="svg8"
   inkscape:version="1.0.2-2 (e86c870879, 2021-01-15)"
   sodipodi:docname="close.svg">
  <defs
     id="defs2" />
  <sodipodi:namedview
     inkscape:pagecheckerboard="true"
     id="base"
     pagecolor="#ffffff"
     bordercolor="#666666"
     borderopacity="1.0"
     inkscape:pageopacity="0.0"
     inkscape:pageshadow="2"
     inkscape:zoom="1.979899"
     inkscape:cx="63.1427"
     inkscape:cy="103.06162"
     inkscape:document-units="mm"
     inkscape:current-layer="layer1"
     inkscape:document-rotation="0"
     showgrid="false"
     showborder="false"
     fit-margin-top="0"
     fit-margin-left="0"
     fit-margin-right="0"
     fit-margin-bottom="0"
     inkscape:window-width="1920"
     inkscape:window-height="1027"
     inkscape:window-x="-8"
     inkscape:window-y="22"
     inkscape:window-maximized="1" />
  <metadata
     id="metadata5">
    <rdf:RDF>
      <cc:Work
         rdf:about="">
        <dc:format>image/svg+xml</dc:format>
        <dc:type
           rdf:resource="http://purl.org/dc/dcmitype/StillImage" />
        <dc:title></dc:title>
      </cc:Work>
    </rdf:RDF>
  </metadata>
  <g
     inkscape:label="Layer 1"
     inkscape:groupmode="layer"
     id="layer1"
     transform="translate(-17.360381,-124.80272)">
    <path
       id="rect10"
       style="fill:#ffffff;fill-opacity:1;stroke:none;stroke-width:0.204603"
       d="m 20.73722,125.31842 13.107476,13.10747 c 0.707799,0.7078 0.684081,1.87114 -0.05316,2.60839 l -0.19959,0.19959 c -0.737252,0.73725 -1.900592,0.76097 -2.60839,0.0532 L 17.876078,128.17956 c -0.7078,-0.70781 -0.684091,-1.87115 0.05316,-2.60839 l 0.199589,-0.19959 c 0.737243,-0.73724 1.900593,-0.76097 2.608391,-0.0532 z"
       sodipodi:nodetypes="sssssssss" />
    <path
       id="rect21"
       style="fill:#ffffff;fill-opacity:1;stroke:none;stroke-width:0.204603"
       d="m 17.876082,138.4259 13.107475,-13.10748 c 0.7078,-0.7078 1.871139,-0.68408 2.608392,0.0532 l 0.199579,0.19958 c 0.737253,0.73725 0.760962,1.90059 0.05316,2.60839 l -13.107476,13.10748 c -0.707799,0.70779 -1.871138,0.68408 -2.608391,-0.0532 l -0.199579,-0.19958 c -0.737253,-0.73726 -0.760962,-1.9006 -0.05316,-2.60839 z"
       sodipodi:nodetypes="sssssssss" />
  </g>
</svg>
