<?xml version="1.0" encoding="UTF-8" standalone="no"?>
<svg
   xmlns:dc="http://purl.org/dc/elements/1.1/"
   xmlns:cc="http://creativecommons.org/ns#"
   xmlns:rdf="http://www.w3.org/1999/02/22-rdf-syntax-ns#"
   xmlns:svg="http://www.w3.org/2000/svg"
   xmlns="http://www.w3.org/2000/svg"
   xmlns:sodipodi="http://sodipodi.sourceforge.net/DTD/sodipodi-0.dtd"
   xmlns:inkscape="http://www.inkscape.org/namespaces/inkscape"
   width="162.30019mm"
   height="20.861919mm"
   viewBox="0 0 162.30018 20.861919"
   version="1.1"
   id="svg1104"
   inkscape:version="1.0.2-2 (e86c870879, 2021-01-15)"
   sodipodi:docname="logo.svg">
  <defs
     id="defs1098">
    <rect
       x="-90.337097"
       y="139.51469"
       width="206.86661"
       height="32.606884"
       id="rect897" />
    <rect
       x="-90.337097"
       y="139.51469"
       width="206.86661"
       height="32.606884"
       id="rect1089" />
  </defs>
  <sodipodi:namedview
     id="base"
     pagecolor="#ffffff"
     bordercolor="#666666"
     borderopacity="1.0"
     inkscape:pageopacity="0.0"
     inkscape:pageshadow="2"
     inkscape:zoom="0.98994949"
     inkscape:cx="152.74871"
     inkscape:cy="41.572828"
     inkscape:document-units="mm"
     inkscape:current-layer="layer1"
     inkscape:document-rotation="0"
     showgrid="false"
     inkscape:window-width="1920"
     inkscape:window-height="1027"
     inkscape:window-x="-8"
     inkscape:window-y="22"
     inkscape:window-maximized="1" />
  <metadata
     id="metadata1101">
    <rdf:RDF>
      <cc:Work
         rdf:about="">
        <dc:format>image/svg+xml</dc:format>
        <dc:type
           rdf:resource="http://purl.org/dc/dcmitype/StillImage" />
        <dc:title />
      </cc:Work>
    </rdf:RDF>
  </metadata>
  <g
     inkscape:label="Layer 1"
     inkscape:groupmode="layer"
     id="layer1"
     transform="translate(-239.89416,-152.2541)">
    <g
       aria-label="Brandon Does Yoga "
       transform="translate(328.53872,12.174022)"
       id="text895"
       style="font-style:normal;font-variant:normal;font-weight:normal;font-stretch:normal;font-size:22.5778px;line-height:0.9;font-family:'TeX Gyre Chorus';-inkscape-font-specification:'TeX Gyre Chorus, Normal';font-variant-ligatures:normal;font-variant-caps:normal;font-variant-numeric:normal;font-variant-east-asian:normal;letter-spacing:0.264583px;white-space:pre;shape-inside:url(#rect897)">
      <path
         d="m -76.249343,150.39812 c 0,-0.69991 -0.338667,-1.35466 -0.903112,-1.78364 -0.474134,-0.36125 -0.970845,-0.49671 -2.05458,-0.6096 2.235202,-1.016 3.364092,-2.25778 3.364092,-3.70276 0,-1.49014 -1.219201,-2.14489 -3.99627,-2.14489 h -0.361245 l 0.180622,-0.69991 -1.828802,0.79022 c -1.94169,0.29351 -3.025425,0.63218 -4.064004,1.24178 -1.806224,1.10631 -2.731914,2.68676 -2.731914,4.6736 0,0.45156 0.04516,0.79023 0.158045,1.46756 l 1.806224,-0.83538 c -0.2032,-0.99342 -0.225778,-1.24178 -0.225778,-1.67076 0,-1.53529 0.474134,-2.48355 1.625602,-3.22862 0.903112,-0.58702 1.806224,-0.85796 3.228625,-0.94827 l -1.670757,6.68303 c -0.948268,3.90596 -1.33209,4.40267 -3.522137,4.62845 l -1.061157,1.08373 1.309513,0.0226 h 0.767645 0.790223 l 1.941691,0.0452 c 1.53529,0 2.709336,-0.29351 4.222049,-1.06116 2.032002,-1.016 3.025425,-2.32551 3.025425,-3.95112 z m -1.964269,0.51929 c 0,0.85796 -0.361244,1.85138 -0.925689,2.48356 -0.609601,0.69991 -1.512713,1.06116 -2.641603,1.06116 -0.564445,0 -1.219201,-0.0677 -3.341515,-0.29351 2.212625,-1.96427 2.57387,-2.50614 3.048003,-4.53814 l 0.225778,-0.85796 c 0.451556,-0.0451 0.654757,-0.0451 0.880535,-0.0451 1.73849,0 2.754491,0.79022 2.754491,2.19004 z m 0.406401,-6.25405 c 0,1.06116 -0.51929,2.14489 -1.309513,2.73192 -0.677334,0.51929 -1.354668,0.72249 -2.573869,0.74506 l 1.33209,-5.35093 c 1.106313,0.0226 1.354668,0.0677 1.670758,0.22577 0.541867,0.27094 0.880534,0.92569 0.880534,1.64818 z"
         style="font-style:normal;font-variant:normal;font-weight:normal;font-stretch:normal;font-size:22.5778px;font-family:'TeX Gyre Chorus';-inkscape-font-specification:'TeX Gyre Chorus, Normal';font-variant-ligatures:normal;font-variant-caps:normal;font-variant-numeric:normal;font-variant-east-asian:normal"
         id="path1423" />
      <path
         d="m -67.292341,146.26639 c -0.428979,-0.13547 -0.609601,-0.18063 -0.835379,-0.18063 -0.4064,0 -0.880534,0.2032 -1.490135,0.63218 l -1.33209,0.97085 c 0.02258,-0.18062 0.06773,-0.29351 0.06773,-0.36125 0.180623,-0.74506 0.203201,-0.88053 0.203201,-0.99342 0,-0.13547 -0.135467,-0.24836 -0.293512,-0.24836 -0.293511,0 -2.280358,0.97085 -3.657604,1.80623 l -0.06773,0.6096 c 1.219201,-0.63218 1.354668,-0.67733 1.625602,-0.67733 0.293511,0 0.428978,0.15804 0.428978,0.47413 0,0.31609 -0.225778,1.37725 -0.496712,2.34809 l -1.354668,4.94454 1.738491,-0.65476 1.693335,-6.43467 c 0.767645,-0.56445 1.286935,-0.79022 1.896535,-0.79022 0.496712,0 0.790223,0.18062 1.196624,0.69991 z"
         style="font-style:normal;font-variant:normal;font-weight:normal;font-stretch:normal;font-size:22.5778px;font-family:'TeX Gyre Chorus';-inkscape-font-specification:'TeX Gyre Chorus, Normal';font-variant-ligatures:normal;font-variant-caps:normal;font-variant-numeric:normal;font-variant-east-asian:normal"
         id="path1425" />
      <path
         d="m -58.403056,153.13004 v -0.65476 c -0.428978,0.27094 -1.919113,1.33209 -2.280358,1.33209 -0.225778,0 -0.270933,-0.29351 -0.270933,-0.49671 0,-0.83538 1.016001,-4.96712 1.286934,-6.07343 0.09031,-0.13546 0.541867,-0.69991 0.654756,-0.8128 -0.767645,-0.2032 -1.761068,-0.33867 -2.66418,-0.33867 -1.512713,0 -1.670757,0.15805 -2.709336,0.88054 -0.609601,0.42898 -1.174046,0.67733 -1.603024,1.35467 -1.12889,1.76107 -1.557868,4.04142 -1.557868,5.46382 0,0.67734 0.180622,1.89654 0.970845,1.89654 0.835379,0 2.867381,-1.69333 4.041426,-2.50614 l -0.158044,1.01601 c -0.135467,0.76764 -0.270934,1.46755 0.270933,1.46755 0.564445,0 3.364093,-2.05458 4.018849,-2.52871 z m -3.996271,-0.83538 c -0.677334,0.49671 -2.167469,1.71591 -2.754491,1.71591 -0.587023,0 -0.699912,-0.6096 -0.699912,-1.15147 0,-1.44497 0.451556,-3.09315 1.038579,-4.24462 0.383822,-0.79022 0.745067,-1.44498 1.761068,-1.44498 0.564445,0 1.264357,0.15804 1.828802,0.27093 z"
         style="font-style:normal;font-variant:normal;font-weight:normal;font-stretch:normal;font-size:22.5778px;font-family:'TeX Gyre Chorus';-inkscape-font-specification:'TeX Gyre Chorus, Normal';font-variant-ligatures:normal;font-variant-caps:normal;font-variant-numeric:normal;font-variant-east-asian:normal"
         id="path1427" />
      <path
         d="m -48.001081,152.47528 c -2.25778,1.28694 -2.348091,1.33209 -2.573869,1.33209 -0.225778,0 -0.361245,-0.24835 -0.361245,-0.6096 0,-0.47413 0.158045,-1.2192 0.587023,-2.77707 1.061157,-3.79307 1.061157,-3.79307 1.061157,-3.95111 0,-0.24836 -0.158045,-0.38383 -0.451556,-0.38383 -0.338667,0 -0.835379,0.2032 -1.64818,0.72249 l -3.093159,1.91912 c 0.203201,-0.74507 0.541868,-2.16747 0.541868,-2.34809 0,-0.15805 -0.135467,-0.29352 -0.293512,-0.29352 -0.248356,0 -1.873957,0.83538 -3.544714,1.82881 l -0.135467,0.58702 c 1.444979,-0.65476 1.53529,-0.67733 1.73849,-0.67733 0.158045,0 0.270934,0.13546 0.270934,0.31608 0,0.47414 -0.428978,2.3481 -0.993423,4.40268 l -0.51929,1.8288 -0.316089,1.2192 1.693335,-0.65476 1.33209,-5.30578 c 2.822226,-1.78365 2.889959,-1.80622 3.206048,-1.80622 0.158045,0 0.248356,0.11288 0.248356,0.29351 0,0.33866 -0.180622,1.19662 -0.835379,3.77049 -0.496711,2.00942 -0.587022,2.39325 -0.587022,2.82222 0,0.31609 0.09031,0.60961 0.338667,1.01601 1.038578,-0.47414 2.596447,-1.44498 4.176893,-2.61903 z"
         style="font-style:normal;font-variant:normal;font-weight:normal;font-stretch:normal;font-size:22.5778px;font-family:'TeX Gyre Chorus';-inkscape-font-specification:'TeX Gyre Chorus, Normal';font-variant-ligatures:normal;font-variant-caps:normal;font-variant-numeric:normal;font-variant-east-asian:normal"
         id="path1429" />
      <path
         d="m -37.960331,153.10746 0.09031,-0.69991 c -0.293511,0.18062 -0.519289,0.33867 -0.632178,0.4064 -1.241779,0.85796 -1.873957,1.2192 -2.077158,1.2192 -0.180622,0 -0.316089,-0.24836 -0.316089,-0.58702 0,-0.74507 1.896535,-8.91823 2.370669,-10.31806 0.496712,-1.35467 0.993423,-1.87395 1.806224,-1.87395 0.293512,0 0.51929,0.0452 1.038579,0.18062 l 0.790223,-1.26436 c -0.338667,-0.0677 -0.519289,-0.0903 -0.722489,-0.0903 -0.541868,0 -0.835379,0.0903 -1.354669,0.38382 -0.564445,0.31609 -1.33209,0.90311 -1.964268,1.49014 -1.106312,1.06115 -1.174046,1.2192 -1.761069,3.54471 l -0.180622,0.72249 c -0.4064,-0.0903 -0.745067,-0.13547 -0.92569,-0.13547 -0.699912,0 -2.641603,1.21921 -3.544715,2.21263 -0.767645,0.88053 -1.783646,4.064 -1.783646,5.62187 0,0.85796 0.451556,1.73849 0.857957,1.73849 0.428978,0 1.422401,-0.6096 3.79307,-2.32551 -0.112889,0.56444 -0.180622,1.2192 -0.180622,1.6256 0,0.45156 0.180622,0.69991 0.496711,0.69991 0.361245,0 2.325514,-1.19662 4.199471,-2.55129 z m -4.334937,-0.6096 c -1.919114,1.35467 -2.415825,1.64818 -2.731914,1.64818 -0.31609,0 -0.474134,-0.33867 -0.474134,-0.99342 0,-0.74507 0.135467,-1.60303 0.4064,-2.59645 0.654756,-2.28036 1.535291,-3.40925 2.686758,-3.40925 0.406401,0 0.699912,0.15805 1.174046,0.6096 z"
         style="font-style:normal;font-variant:normal;font-weight:normal;font-stretch:normal;font-size:22.5778px;font-family:'TeX Gyre Chorus';-inkscape-font-specification:'TeX Gyre Chorus, Normal';font-variant-ligatures:normal;font-variant-caps:normal;font-variant-numeric:normal;font-variant-east-asian:normal"
         id="path1431" />
      <path
         d="m -28.75497,148.16292 c 0,-1.2192 -0.835379,-2.07716 -2.032002,-2.07716 -0.903112,0 -2.348091,0.65476 -3.680182,1.64818 -1.444979,1.08374 -2.46098,3.43183 -2.46098,5.66703 0,1.37725 0.767645,2.25778 1.964269,2.25778 0.632178,0 1.264357,-0.22578 2.302935,-0.76764 1.12889,-0.63218 1.873958,-1.19663 2.280358,-1.73849 0.903112,-1.2192 1.625602,-3.43183 1.625602,-4.9897 z m -1.738491,1.2192 c 0,0.94827 -0.316089,2.12232 -0.880534,3.22863 -0.632178,1.28693 -1.444979,1.98685 -2.302936,1.98685 -0.92569,0 -1.512712,-0.83538 -1.512712,-2.12232 0,-2.61902 1.648179,-5.32836 3.228625,-5.32836 0.903112,0 1.467557,0.88054 1.467557,2.2352 z"
         style="font-style:normal;font-variant:normal;font-weight:normal;font-stretch:normal;font-size:22.5778px;font-family:'TeX Gyre Chorus';-inkscape-font-specification:'TeX Gyre Chorus, Normal';font-variant-ligatures:normal;font-variant-caps:normal;font-variant-numeric:normal;font-variant-east-asian:normal"
         id="path1433" />
      <path
         d="m -17.85625,152.47528 c -2.25778,1.28694 -2.348091,1.33209 -2.573869,1.33209 -0.225778,0 -0.361245,-0.24835 -0.361245,-0.6096 0,-0.47413 0.158045,-1.2192 0.587023,-2.77707 1.061156,-3.79307 1.061156,-3.79307 1.061156,-3.95111 0,-0.24836 -0.158044,-0.38383 -0.451556,-0.38383 -0.338667,0 -0.835378,0.2032 -1.648179,0.72249 l -3.093159,1.91912 c 0.2032,-0.74507 0.541867,-2.16747 0.541867,-2.34809 0,-0.15805 -0.135466,-0.29352 -0.293511,-0.29352 -0.248356,0 -1.873957,0.83538 -3.544715,1.82881 l -0.135467,0.58702 c 1.44498,-0.65476 1.535291,-0.67733 1.738491,-0.67733 0.158045,0 0.270934,0.13546 0.270934,0.31608 0,0.47414 -0.428978,2.3481 -0.993423,4.40268 l -0.51929,1.8288 -0.316089,1.2192 1.693335,-0.65476 1.33209,-5.30578 c 2.822225,-1.78365 2.889959,-1.80622 3.206048,-1.80622 0.158044,0 0.248356,0.11288 0.248356,0.29351 0,0.33866 -0.180623,1.19662 -0.835379,3.77049 -0.496712,2.00942 -0.587023,2.39325 -0.587023,2.82222 0,0.31609 0.09031,0.60961 0.338667,1.01601 1.038579,-0.47414 2.596447,-1.44498 4.176893,-2.61903 z"
         style="font-style:normal;font-variant:normal;font-weight:normal;font-stretch:normal;font-size:22.5778px;font-family:'TeX Gyre Chorus';-inkscape-font-specification:'TeX Gyre Chorus, Normal';font-variant-ligatures:normal;font-variant-caps:normal;font-variant-numeric:normal;font-variant-east-asian:normal"
         id="path1435" />
      <path
         d="m 3.4218749,146.28896 c 0,-1.55786 -0.8128009,-2.73191 -2.3480913,-3.40924 -0.97084544,-0.42898 -2.1223133,-0.6096 -4.31236,-0.74507 l 0.1580447,-0.63218 -1.6256017,0.67734 c -1.8513797,0.31608 -3.0254253,0.72248 -4.2220487,1.49013 -1.9191129,1.24178 -2.8448029,2.75449 -2.8448029,4.6736 0,0.42898 0.02258,0.69992 0.158045,1.28694 l 1.8513792,-0.83538 c -0.1354668,-0.58702 -0.1580446,-0.85796 -0.1580446,-1.26436 0,-2.68675 1.6707573,-4.2672 4.8316494,-4.58329 l -1.6933351,6.72819 c -0.8805342,3.77049 -1.467557,4.4704 -3.9059599,4.65102 l -1.083734,1.03858 h 2.8673807 c 3.7253371,0 4.6284491,-0.0677 5.8250726,-0.49671 1.806224,-0.6096 3.65760367,-1.78365 4.5381379,-2.86738 1.1514678,-1.4224 1.9642687,-3.79307 1.9642687,-5.71219 z m -1.9642687,0.45156 c 0,1.94169 -0.74506742,4.35752 -1.76106846,5.64445 -1.10631224,1.4224 -2.43840244,1.96427 -4.76391594,1.96427 h -0.338667 l -2.8899585,-0.0903 c 2.6190249,-2.4384 2.6190249,-2.4384 3.6350259,-6.52499 l 1.241779,-4.89938 c 1.6481795,0.0677 2.4158247,0.2032 3.11573654,0.56445 1.10631224,0.58702 1.76106846,1.8288 1.76106846,3.34151 z"
         style="font-style:normal;font-variant:normal;font-weight:normal;font-stretch:normal;font-size:22.5778px;font-family:'TeX Gyre Chorus';-inkscape-font-specification:'TeX Gyre Chorus, Normal';font-variant-ligatures:normal;font-variant-caps:normal;font-variant-numeric:normal;font-variant-east-asian:normal"
         id="path1437" />
      <path
         d="m 12.49178,148.16292 c 0,-1.2192 -0.835379,-2.07716 -2.032002,-2.07716 -0.9031123,0 -2.3480916,0.65476 -3.6801818,1.64818 -1.4449793,1.08374 -2.4609803,3.43183 -2.4609803,5.66703 0,1.37725 0.7676452,2.25778 1.9642687,2.25778 0.6321784,0 1.2643568,-0.22578 2.3029356,-0.76764 1.1288901,-0.63218 1.8739578,-1.19663 2.2803578,-1.73849 0.903112,-1.2192 1.625602,-3.43183 1.625602,-4.9897 z m -1.738491,1.2192 c 0,0.94827 -0.316089,2.12232 -0.8805341,3.22863 -0.6321784,1.28693 -1.4449793,1.98685 -2.3029357,1.98685 -0.9256898,0 -1.5127126,-0.83538 -1.5127126,-2.12232 0,-2.61902 1.6481794,-5.32836 3.2286255,-5.32836 0.9031119,0 1.4675569,0.88054 1.4675569,2.2352 z"
         style="font-style:normal;font-variant:normal;font-weight:normal;font-stretch:normal;font-size:22.5778px;font-family:'TeX Gyre Chorus';-inkscape-font-specification:'TeX Gyre Chorus, Normal';font-variant-ligatures:normal;font-variant-caps:normal;font-variant-numeric:normal;font-variant-east-asian:normal"
         id="path1439" />
      <path
         d="m 20.27476,152.97199 v -0.65475 c -0.835379,0.67733 -2.438403,2.05458 -3.589871,2.05458 -1.264357,0 -1.377246,-1.35467 -1.354668,-2.2352 0.51929,-0.24836 2.731914,-1.91912 3.18347,-2.25778 0.835379,-0.67734 1.444979,-1.39983 1.444979,-2.46099 0,-0.74506 -0.451556,-1.30951 -1.286934,-1.30951 -0.812801,0 -1.512713,0.4064 -2.325514,1.03858 -1.986846,1.53529 -2.686758,4.06401 -2.686758,6.18632 0,1.37724 0.564445,2.34809 1.941691,2.34809 1.73849,0 3.747915,-1.78365 4.673605,-2.70934 z m -1.986847,-4.92196 c 0,1.62561 -1.85138,2.55129 -2.935114,3.38667 0.09031,-1.12889 0.948268,-4.33493 2.235202,-4.33493 0.496712,0 0.699912,0.45155 0.699912,0.94826 z"
         style="font-style:normal;font-variant:normal;font-weight:normal;font-stretch:normal;font-size:22.5778px;font-family:'TeX Gyre Chorus';-inkscape-font-specification:'TeX Gyre Chorus, Normal';font-variant-ligatures:normal;font-variant-caps:normal;font-variant-numeric:normal;font-variant-east-asian:normal"
         id="path1441" />
      <path
         d="m 28.102865,146.85341 c -0.451556,-0.54187 -0.880534,-0.76765 -1.512713,-0.76765 -1.648179,0 -3.770493,1.96427 -3.770493,3.45441 0,0.69991 0.361245,1.24178 1.219202,1.85138 1.12889,0.79022 1.286934,0.99342 1.286934,1.55787 0,0.8128 -1.038579,1.76106 -1.919113,1.76106 -0.496711,0 -0.880534,-0.27093 -1.106312,-0.76764 -0.158045,-0.33867 -0.2032,-0.67733 -0.225778,-1.44498 -0.248356,0.18062 -0.428978,0.29351 -0.519289,0.36124 -0.180623,0.11289 -0.383823,0.22578 -0.587023,0.36125 0,0 -0.180623,0.11289 -0.406401,0.27093 -0.02258,0.2032 -0.04516,0.38383 -0.04516,0.51929 0,0.97085 0.677334,1.64818 1.670757,1.64818 0.699912,0 1.670757,-0.29351 2.393247,-0.69991 1.33209,-0.76764 2.144891,-1.91911 2.144891,-3.048 0,-0.83538 -0.158045,-1.016 -1.422401,-1.80623 -0.767646,-0.49671 -1.083735,-0.92569 -1.083735,-1.51271 0,-0.76764 0.654756,-1.44498 1.422402,-1.44498 0.519289,0 0.903112,0.24836 1.399823,0.88054 0.767645,-0.74507 0.767645,-0.74507 1.061157,-1.17405 z"
         style="font-style:normal;font-variant:normal;font-weight:normal;font-stretch:normal;font-size:22.5778px;font-family:'TeX Gyre Chorus';-inkscape-font-specification:'TeX Gyre Chorus, Normal';font-variant-ligatures:normal;font-variant-caps:normal;font-variant-numeric:normal;font-variant-east-asian:normal"
         id="path1443" />
      <path
         d="m 49.539049,141.99918 c -0.338667,-0.29351 -0.519289,-0.36124 -0.903112,-0.36124 -1.806224,0 -3.18347,1.80622 -6.163739,8.01512 0.2032,-1.19663 0.248355,-1.73849 0.248355,-2.48356 0,-2.95769 -1.196623,-4.80907 -3.115736,-4.80907 -2.709336,0 -5.757339,2.8448 -5.757339,5.41867 0,0.67733 0.158044,1.35467 0.474133,2.05458 l 1.715913,-1.08373 c -0.338667,-1.06116 -0.451556,-1.60303 -0.451556,-2.28036 0,-1.58045 1.083735,-2.82223 2.460981,-2.82223 2.009424,0 3.251203,2.28036 3.251203,5.96054 0,1.15147 -0.135467,2.032 -0.428978,2.86738 -0.428979,1.15147 -0.948268,2.19005 -1.557869,3.04801 -0.835378,1.17404 -1.919113,1.64817 -3.860804,1.64817 -0.338667,0 -0.677334,-0.0226 -1.648179,-0.0903 l -0.790223,1.67076 c 0.451556,0.0452 0.654756,0.0452 1.038579,0.0452 2.05458,0 3.070581,-0.2032 4.018848,-0.83538 1.106313,-0.72249 2.325514,-2.61903 4.583294,-7.15716 2.348091,-4.71877 2.619025,-5.23805 3.228625,-6.11859 0.677334,-0.94827 1.196624,-1.30951 1.896536,-1.30951 0.361245,0 0.6096,0.0677 1.12889,0.27093 z"
         style="font-style:normal;font-variant:normal;font-weight:normal;font-stretch:normal;font-size:22.5778px;font-family:'TeX Gyre Chorus';-inkscape-font-specification:'TeX Gyre Chorus, Normal';font-variant-ligatures:normal;font-variant-caps:normal;font-variant-numeric:normal;font-variant-east-asian:normal"
         id="path1445" />
      <path
         d="m 54.115979,148.16292 c 0,-1.2192 -0.835379,-2.07716 -2.032002,-2.07716 -0.903112,0 -2.348092,0.65476 -3.680182,1.64818 -1.444979,1.08374 -2.46098,3.43183 -2.46098,5.66703 0,1.37725 0.767645,2.25778 1.964268,2.25778 0.632179,0 1.264357,-0.22578 2.302936,-0.76764 1.12889,-0.63218 1.873958,-1.19663 2.280358,-1.73849 0.903112,-1.2192 1.625602,-3.43183 1.625602,-4.9897 z m -1.738491,1.2192 c 0,0.94827 -0.316089,2.12232 -0.880534,3.22863 -0.632179,1.28693 -1.444979,1.98685 -2.302936,1.98685 -0.92569,0 -1.512713,-0.83538 -1.512713,-2.12232 0,-2.61902 1.64818,-5.32836 3.228626,-5.32836 0.903112,0 1.467557,0.88054 1.467557,2.2352 z"
         style="font-style:normal;font-variant:normal;font-weight:normal;font-stretch:normal;font-size:22.5778px;font-family:'TeX Gyre Chorus';-inkscape-font-specification:'TeX Gyre Chorus, Normal';font-variant-ligatures:normal;font-variant-caps:normal;font-variant-numeric:normal;font-variant-east-asian:normal"
         id="path1447" />
      <path
         d="m 64.134168,146.10834 -2.619025,0.0452 c -1.377245,0.0226 -1.761068,0.0903 -2.438402,0.49671 -1.083734,0.67733 -1.85138,1.30951 -2.325513,1.91911 -0.677334,0.88054 -1.490135,3.61245 -1.490135,4.9897 0,0.56444 0.135466,0.97084 0.496711,1.46755 l -2.596447,2.23521 c -1.12889,0.99342 -1.648179,1.73849 -1.648179,2.37067 0,0.83537 0.993423,1.30951 2.709336,1.30951 2.077158,0 3.702759,-0.58703 5.215472,-1.89654 0.970845,-0.83538 1.196623,-1.30951 1.670757,-3.54471 l 1.12889,-5.08001 c 0.09031,-0.49671 0.2032,-0.92569 0.293512,-1.28693 l 0.338667,-1.26436 c 0.04515,-0.2032 0.09031,-0.36124 0.112889,-0.49671 0.4064,-0.11289 0.428978,-0.11289 1.151467,-1.26436 z m -4.854227,10.49868 c -0.293511,1.35467 -0.496711,1.87396 -0.903112,2.30294 -0.496711,0.56444 -1.422401,0.85795 -2.754492,0.85795 -1.467557,0 -2.25778,-0.4064 -2.25778,-1.12889 0,-0.92569 0.609601,-1.49013 6.88623,-6.2992 z m 3.364093,-9.2569 c -0.112889,0.0903 -0.248356,0.2032 -0.361245,0.27094 -0.72249,0.51928 -0.880535,0.72248 -1.083735,1.26435 l -0.745067,2.6416 c -0.451556,0.29352 -0.993423,0.69992 -2.889959,2.12232 -0.4064,-0.4064 -0.564445,-0.76765 -0.564445,-1.30951 0,-0.76765 0.541868,-2.73192 1.016001,-3.81565 0.451556,-0.92569 0.92569,-1.15147 2.57387,-1.15147 0.158044,0 0.428978,0 0.722489,-0.0226 h 0.609601 c 0.248356,0 0.474134,0 0.72249,0 z"
         style="font-style:normal;font-variant:normal;font-weight:normal;font-stretch:normal;font-size:22.5778px;font-family:'TeX Gyre Chorus';-inkscape-font-specification:'TeX Gyre Chorus, Normal';font-variant-ligatures:normal;font-variant-caps:normal;font-variant-numeric:normal;font-variant-east-asian:normal"
         id="path1449" />
      <path
         d="m 73.655631,153.13004 v -0.65476 c -0.428978,0.27094 -1.919113,1.33209 -2.280358,1.33209 -0.225778,0 -0.270933,-0.29351 -0.270933,-0.49671 0,-0.83538 1.016001,-4.96712 1.286934,-6.07343 0.09031,-0.13546 0.541868,-0.69991 0.654757,-0.8128 -0.767646,-0.2032 -1.761069,-0.33867 -2.664181,-0.33867 -1.512713,0 -1.670757,0.15805 -2.709336,0.88054 -0.609601,0.42898 -1.174046,0.67733 -1.603024,1.35467 -1.12889,1.76107 -1.557868,4.04142 -1.557868,5.46382 0,0.67734 0.180622,1.89654 0.970845,1.89654 0.835379,0 2.867381,-1.69333 4.041427,-2.50614 l -0.158045,1.01601 c -0.135467,0.76764 -0.270934,1.46755 0.270934,1.46755 0.564445,0 3.364092,-2.05458 4.018848,-2.52871 z m -3.996271,-0.83538 c -0.677334,0.49671 -2.167468,1.71591 -2.754491,1.71591 -0.587023,0 -0.699912,-0.6096 -0.699912,-1.15147 0,-1.44497 0.451556,-3.09315 1.038579,-4.24462 0.383822,-0.79022 0.745067,-1.44498 1.761068,-1.44498 0.564445,0 1.264357,0.15804 1.828802,0.27093 z"
         style="font-style:normal;font-variant:normal;font-weight:normal;font-stretch:normal;font-size:22.5778px;font-family:'TeX Gyre Chorus';-inkscape-font-specification:'TeX Gyre Chorus, Normal';font-variant-ligatures:normal;font-variant-caps:normal;font-variant-numeric:normal;font-variant-east-asian:normal"
         id="path1451" />
    </g>
  </g>
</svg>
